TITLE ""
FILE "1Q_t_1210-1219.mp3" MP3
  TRACK 01 AUDIO
    TITLE "1Q_t_1210-1219_01"
    INDEX 01 00:00:00
  TRACK 02 AUDIO
    TITLE "1Q_t_1210-1219_02"
    INDEX 01 00:00:12
  TRACK 03 AUDIO
    TITLE "1Q_t_1210-1219_03"
    INDEX 01 00:01:31
  TRACK 04 AUDIO
    TITLE "1Q_t_1210-1219_04"
    INDEX 01 00:01:39
  TRACK 05 AUDIO
    TITLE "1Q_t_1210-1219_05"
    INDEX 01 00:04:49
  TRACK 06 AUDIO
    TITLE "1Q_t_1210-1219_06"
    INDEX 01 00:04:55
  TRACK 07 AUDIO
    TITLE "1Q_t_1210-1219_07"
    INDEX 01 00:09:58
  TRACK 08 AUDIO
    TITLE "1Q_t_1210-1219_08"
    INDEX 01 00:10:30
  TRACK 09 AUDIO
    TITLE "1Q_t_1210-1219_09"
    INDEX 01 00:11:57
  TRACK 10 AUDIO
    TITLE "1Q_t_1210-1219_10"
    INDEX 01 00:11:65
  TRACK 11 AUDIO
    TITLE "1Q_t_1210-1219_11"
    INDEX 01 00:15:08
  TRACK 12 AUDIO
    TITLE "1Q_t_1210-1219_12"
    INDEX 01 00:15:14
  TRACK 13 AUDIO
    TITLE "1Q_t_1210-1219_13"
    INDEX 01 00:19:64
  TRACK 14 AUDIO
    TITLE "1Q_t_1210-1219_14"
    INDEX 01 00:20:37
  TRACK 15 AUDIO
    TITLE "1Q_t_1210-1219_15"
    INDEX 01 00:21:46
  TRACK 16 AUDIO
    TITLE "1Q_t_1210-1219_16"
    INDEX 01 00:21:54
  TRACK 17 AUDIO
    TITLE "1Q_t_1210-1219_17"
    INDEX 01 00:24:09
  TRACK 18 AUDIO
    TITLE "1Q_t_1210-1219_18"
    INDEX 01 00:24:15
  TRACK 19 AUDIO
    TITLE "1Q_t_1210-1219_19"
    INDEX 01 00:29:08
  TRACK 20 AUDIO
    TITLE "1Q_t_1210-1219_20"
    INDEX 01 00:29:55
  TRACK 21 AUDIO
    TITLE "1Q_t_1210-1219_21"
    INDEX 01 00:31:05
  TRACK 22 AUDIO
    TITLE "1Q_t_1210-1219_22"
    INDEX 01 00:31:15
  TRACK 23 AUDIO
    TITLE "1Q_t_1210-1219_23"
    INDEX 01 00:33:29
  TRACK 24 AUDIO
    TITLE "1Q_t_1210-1219_24"
    INDEX 01 00:33:37
  TRACK 25 AUDIO
    TITLE "1Q_t_1210-1219_25"
    INDEX 01 00:40:59
  TRACK 26 AUDIO
    TITLE "1Q_t_1210-1219_26"
    INDEX 01 00:41:29
  TRACK 27 AUDIO
    TITLE "1Q_t_1210-1219_27"
    INDEX 01 00:42:34
  TRACK 28 AUDIO
    TITLE "1Q_t_1210-1219_28"
    INDEX 01 00:42:54
  TRACK 29 AUDIO
    TITLE "1Q_t_1210-1219_29"
    INDEX 01 00:45:25
  TRACK 30 AUDIO
    TITLE "1Q_t_1210-1219_30"
    INDEX 01 00:45:33
  TRACK 31 AUDIO
    TITLE "1Q_t_1210-1219_31"
    INDEX 01 00:50:67
  TRACK 32 AUDIO
    TITLE "1Q_t_1210-1219_32"
    INDEX 01 00:51:37
  TRACK 33 AUDIO
    TITLE "1Q_t_1210-1219_33"
    INDEX 01 00:53:18
  TRACK 34 AUDIO
    TITLE "1Q_t_1210-1219_34"
    INDEX 01 00:53:22
  TRACK 35 AUDIO
    TITLE "1Q_t_1210-1219_35"
    INDEX 01 00:55:15
  TRACK 36 AUDIO
    TITLE "1Q_t_1210-1219_36"
    INDEX 01 00:55:21
  TRACK 37 AUDIO
    TITLE "1Q_t_1210-1219_37"
    INDEX 01 01:02:07
  TRACK 38 AUDIO
    TITLE "1Q_t_1210-1219_38"
    INDEX 01 01:02:51
  TRACK 39 AUDIO
    TITLE "1Q_t_1210-1219_39"
    INDEX 01 01:03:72
  TRACK 40 AUDIO
    TITLE "1Q_t_1210-1219_40"
    INDEX 01 01:04:04
  TRACK 41 AUDIO
    TITLE "1Q_t_1210-1219_41"
    INDEX 01 01:07:65
  TRACK 42 AUDIO
    TITLE "1Q_t_1210-1219_42"
    INDEX 01 01:07:71
  TRACK 43 AUDIO
    TITLE "1Q_t_1210-1219_43"
    INDEX 01 01:12:69
  TRACK 44 AUDIO
    TITLE "1Q_t_1210-1219_44"
    INDEX 01 01:13:45
  TRACK 45 AUDIO
    TITLE "1Q_t_1210-1219_45"
    INDEX 01 01:14:62
  TRACK 46 AUDIO
    TITLE "1Q_t_1210-1219_46"
    INDEX 01 01:14:69
  TRACK 47 AUDIO
    TITLE "1Q_t_1210-1219_47"
    INDEX 01 01:17:25
  TRACK 48 AUDIO
    TITLE "1Q_t_1210-1219_48"
    INDEX 01 01:17:33
  TRACK 49 AUDIO
    TITLE "1Q_t_1210-1219_49"
    INDEX 01 01:23:59
  TRACK 50 AUDIO
    TITLE "1Q_t_1210-1219_50"
    INDEX 01 01:24:31
  TRACK 51 AUDIO
    TITLE "1Q_t_1210-1219_51"
    INDEX 01 01:25:61
  TRACK 52 AUDIO
    TITLE "1Q_t_1210-1219_52"
    INDEX 01 01:25:69
  TRACK 53 AUDIO
    TITLE "1Q_t_1210-1219_53"
    INDEX 01 01:29:49
  TRACK 54 AUDIO
    TITLE "1Q_t_1210-1219_54"
    INDEX 01 01:29:55
  TRACK 55 AUDIO
    TITLE "1Q_t_1210-1219_55"
    INDEX 01 01:35:72
  TRACK 56 AUDIO
    TITLE "1Q_t_1210-1219_56"
    INDEX 01 01:36:44
  TRACK 57 AUDIO
    TITLE "1Q_t_1210-1219_57"
    INDEX 01 01:37:59
  TRACK 58 AUDIO
    TITLE "1Q_t_1210-1219_58"
    INDEX 01 01:37:65
  TRACK 59 AUDIO
    TITLE "1Q_t_1210-1219_59"
    INDEX 01 01:39:28
  TRACK 60 AUDIO
    TITLE "1Q_t_1210-1219_60"
    INDEX 01 01:39:36
  TRACK 61 AUDIO
    TITLE "1Q_t_1210-1219_61"
    INDEX 01 01:47:34
